<svg id="Grupo_2" data-name="Grupo 2" xmlns="http://www.w3.org/2000/svg" width="32" height="32" viewBox="0 0 32 32">
  <rect id="Rectángulo_1" data-name="Rectángulo 1" width="32" height="32" rx="8" fill="#fff" opacity="0.01"/>
  <path id="icono-tik-tok" d="M15.679,5.39q-.176-.091-.342-.2a4.807,4.807,0,0,1-.878-.748,4.156,4.156,0,0,1-.99-2.046h0a2.518,2.518,0,0,1-.039-.729H10.451v11.56c0,.155,0,.309-.006.46,0,.019,0,.036,0,.057a.128.128,0,0,1,0,.026v.006a2.539,2.539,0,0,1-1.274,2.015,2.483,2.483,0,0,1-1.234.326,2.539,2.539,0,0,1,0-5.077,2.486,2.486,0,0,1,.775.123l0-3.044A5.533,5.533,0,0,0,4.44,9.371,5.866,5.866,0,0,0,3.162,10.95,5.482,5.482,0,0,0,2.5,13.461a5.94,5.94,0,0,0,.32,1.985v.007a5.837,5.837,0,0,0,.81,1.48,6.064,6.064,0,0,0,1.292,1.222v-.007l.007.007a5.572,5.572,0,0,0,3.045.919,5.377,5.377,0,0,0,2.26-.5,5.673,5.673,0,0,0,1.835-1.382,5.749,5.749,0,0,0,1-1.666,6.249,6.249,0,0,0,.36-1.905V7.487c.036.022.518.341.518.341a6.886,6.886,0,0,0,1.778.736,10.2,10.2,0,0,0,1.824.25V5.847a3.86,3.86,0,0,1-1.875-.457Z" transform="translate(5.973 5.629)"/>
</svg>
