<svg fill="none" height="56" viewBox="0 0 56 56" width="56" xmlns="http://www.w3.org/2000/svg"><g fill="#ff6200"><path d="m44.7205 28.7781-2.8059-1.9448h-3.8663c-3.7742 7.9146-10.0485 14-10.0485 14s-6.2743-6.0854-10.0485-14h-5.9593l-6.61036 19.8333h45.23166z"/><path d="m28 36.6496.8248-.8248c.3955-.3944 9.6752-9.786 9.6752-19.4915 0-5.7902-4.7098-10.50005-10.5-10.50005s-10.5 4.70985-10.5 10.50005c0 9.7055 9.2797 19.0971 9.6752 19.4915zm-3.5-20.3163c0-1.9332 1.5668-3.5 3.5-3.5s3.5 1.5668 3.5 3.5c0 1.9331-1.5668 3.5-3.5 3.5s-3.5-1.5669-3.5-3.5z"/></g></svg>