<svg width="56" height="56" viewBox="0 0 56 56" fill="none" xmlns="http://www.w3.org/2000/svg">
<path d="M39.6666 8.64975V19.6887C40.4786 20.0189 41.2603 20.4261 41.9999 20.9067V7.68375L38.9829 4.66675H9.33325V7.00008H38.0169L39.6666 8.64975Z" fill="#FF6200"/>
<path d="M20.9882 14.3201H19.1729V18.3567H20.9882C21.2705 18.3567 21.4397 18.2891 21.5412 18.1759C21.631 18.0744 21.6649 17.9052 21.6649 17.6567V15.0177C21.6649 14.7692 21.631 14.6001 21.5412 14.4986C21.4385 14.3877 21.2694 14.3201 20.9882 14.3201Z" fill="#FF6200"/>
<path d="M34.3967 18.667C35.3604 18.667 36.3089 18.765 37.2317 18.9528V11.8921L34.2754 8.93579H8.16772C6.29405 8.93579 4.77039 10.4595 4.77039 12.3331V51.2309H33.8344C35.7081 51.2309 37.2317 49.7073 37.2317 47.8336V46.3811C36.3089 46.5701 35.3604 46.6669 34.3967 46.6669C30.6576 46.6669 27.1412 45.2109 24.4976 42.5661C21.8539 39.9213 20.3967 36.4061 20.3967 32.6669C20.3967 28.9278 21.8527 25.4115 24.4976 22.7678C27.1412 20.123 30.6576 18.667 34.3967 18.667ZM11.1229 19.8336H9.45339V12.8418H11.1229V19.8336ZM16.4336 17.0033H15.0464V18.4021H13.6371V17.0033H12.2499V15.594H13.6371V14.1951H15.0464V15.594H16.4336V17.0033ZM23.3344 17.7931C23.3344 18.4476 23.1769 18.9213 22.8724 19.248C22.5002 19.6423 21.9251 19.8348 21.1586 19.8348H17.9677C17.6516 19.8348 17.5057 19.6995 17.5057 19.4066V13.2723C17.5057 12.9795 17.6527 12.8441 17.9677 12.8441H21.1586C21.9251 12.8441 22.5002 13.0355 22.8724 13.431C23.1769 13.7576 23.3344 14.2313 23.3344 14.8858V17.7931Z" fill="#FF6200"/>
<path d="M50.3872 44.6542L44.3987 38.6657C45.4545 36.9122 46.0624 34.8588 46.0624 32.6667C46.0624 26.2337 40.8287 21 34.3957 21C27.9627 21 22.729 26.2337 22.729 32.6667C22.729 39.0997 27.9627 44.3333 34.3957 44.3333C36.2927 44.3333 38.0858 43.8783 39.6702 43.071L45.8197 49.2205C46.4299 49.8307 47.2407 50.1667 48.1029 50.1667C48.965 50.1667 49.7759 49.8307 50.386 49.2205C50.9962 48.6103 51.3322 47.7995 51.3322 46.9373C51.3334 46.0752 50.9974 45.2643 50.3872 44.6542ZM25.0623 32.6667C25.0623 27.5205 29.2495 23.3333 34.3957 23.3333C39.5418 23.3333 43.729 27.5205 43.729 32.6667C43.729 37.8128 39.5418 42 34.3957 42C29.2495 42 25.0623 37.8128 25.0623 32.6667ZM48.7375 47.5708C48.5684 47.74 48.3432 47.8333 48.104 47.8333C47.8649 47.8333 47.6397 47.74 47.4705 47.5708L41.6757 41.776C42.1424 41.4015 42.581 40.9932 42.9859 40.5522L48.7375 46.3038C48.9067 46.473 49 46.6982 49 46.9373C49 47.1765 48.9067 47.4017 48.7375 47.5708Z" fill="#FF6200"/>
</svg>
