<svg width="56" height="56" viewBox="0 0 56 56" fill="none" xmlns="http://www.w3.org/2000/svg">
<path d="M35.9789 15.9217C35.3034 16.3312 34.6559 16.7815 34.0329 17.261C31.2877 14.5264 27.5042 12.8335 23.3334 12.8335C21.0549 12.8335 18.893 13.341 16.9529 14.2452L19.383 16.6754L17.7334 18.325L12.2419 12.8335L17.7334 7.34204L19.383 8.99171L16.4629 11.9119C18.5734 11.0054 20.895 10.5002 23.3334 10.5002C28.3022 10.5002 32.7904 12.585 35.9789 15.9217ZM20.6582 38.842L19.0085 40.4917L21.5787 43.0619C14.0397 42.1892 8.16671 35.769 8.16671 28.0002C8.16671 24.7102 9.22254 21.664 11.0099 19.1767L9.33921 17.506C7.13887 20.432 5.83337 24.0662 5.83337 28.0002C5.83337 37.1189 12.8439 44.6264 21.7584 45.4255L19.0085 48.1754L20.6582 49.825L26.1497 44.3335L20.6582 38.842ZM47.131 15.1669C36.582 15.1669 28 23.7489 28 34.2979V43.6324L41.0445 24.9972L42.9555 26.3354L29.5412 45.5002H31.0369C41.5847 45.5002 50.1667 36.9182 50.1667 26.3692V15.1669H47.131Z" fill="#FF6200"/>
</svg>
